<svg xmlns="http://www.w3.org/2000/svg" width="445" height="306" viewBox="0 0 445 306">
  <path d="M413.872,211.36a110.11,110.11,0,0,0-77.954-33.6l-.614-.016-.2,0-.2,0H112.041a112.366,112.366,0,0,0-78.366,31.574A109.5,109.5,0,0,0,31.91,365.574a110.916,110.916,0,0,0,155.77,1.74,3.827,3.827,0,0,1,2.645-1.022h64.361a3.707,3.707,0,0,1,2.58.962,110.279,110.279,0,0,0,77.045,31.134c1.318,0,2.652-.023,3.972-.067a110.243,110.243,0,0,0,75.589-186.96ZM112.041,197.794H334.8l.727.02c50.061.657,90.326,41.777,89.332,92.058-.937,47.625-39.519,86.721-87.277,88.4-1.093.041-2.179.057-3.266.057a90.389,90.389,0,0,1-63.03-25.472,23.843,23.843,0,0,0-16.6-6.623H190.324a23.957,23.957,0,0,0-16.647,6.673A90.6,90.6,0,0,1,20.131,286.866C20.778,237.258,62.265,197.794,112.041,197.794Z" transform="translate(0 -92.4)" fill="#333"/>
  <path d="M227.087,337.821l14.629-14.649a5.715,5.715,0,0,0-.007-8.06h0a5.715,5.715,0,0,0-8.057.007l-14.629,14.646a5.7,5.7,0,0,0,8.064,8.057Z" transform="translate(-28.444 -110.679)" fill="#333"/>
  <path d="M274.431,337.821l14.629-14.649a5.7,5.7,0,1,0-8.067-8.053l-14.626,14.646a5.7,5.7,0,0,0,8.064,8.057Z" transform="translate(-34.639 -110.679)" fill="#333"/>
  <path d="M344.972,315.823a29.185,29.185,0,0,0,18.286-6.465l42.276-34.069a29.131,29.131,0,0,0-36.5-45.407l-42.343,34.142a29.131,29.131,0,0,0,18.286,51.8Zm42.275-84.27a21.02,21.02,0,0,1,13.21,37.408L358.181,303.03a21.039,21.039,0,0,1-26.42-32.749L374.1,236.211A20.958,20.958,0,0,1,387.247,231.552Z" transform="translate(-41.335 -98.805)" fill="#333"/>
  <path d="M400.3,267.966a12.665,12.665,0,1,0-17.81-1.915A12.659,12.659,0,0,0,400.3,267.966Z" transform="translate(-49.686 -101.627)" fill="#1dace0"/>
  <path d="M358.061,302a12.665,12.665,0,1,0-17.81-1.915A12.663,12.663,0,0,0,358.061,302Z" transform="translate(-44.158 -106.156)" fill="#30b27f"/>
  <path d="M362.762,329.223a29.151,29.151,0,1,0,36.575,45.4l42.276-34.069a29.129,29.129,0,1,0-36.5-45.4Zm60.562-32.4a21.022,21.022,0,0,1,13.214,37.41L394.261,368.3a21.014,21.014,0,0,1-13.211,4.658,20.7,20.7,0,0,1-16.341-7.856,20.993,20.993,0,0,1,3.127-29.551l42.347-34.073A20.967,20.967,0,0,1,423.323,296.821Z" transform="translate(-46.054 -107.635)" fill="#333"/>
  <circle cx="12.667" cy="12.667" r="12.667" transform="translate(361.353 200.394)" fill="#e1564b"/>
  <circle cx="12.668" cy="12.668" r="12.668" transform="translate(324.638 229.901)" fill="#f4a840"/>
  <path d="M263.4,79.9v-.207h0v-.139h-17.44V148.33H263.4Z" transform="translate(-32.186 -79.552)" fill="#333"/>
  <path d="M106.93,341.505h25.311V311.282h30.223v-25.31H132.241V255.891h0v-.143H106.93v30.224H76.706v25.31H106.93Z" transform="translate(-10.038 -103.105)" fill="#333"/>
</svg>
